<svg width="273" height="53" viewBox="0 0 273 53" fill="none" xmlns="http://www.w3.org/2000/svg">
<g clip-path="url(#clip0_215_2224)">
<path d="M5.87178 38.7832H7.6814L12.5962 50.0111H10.5192L9.3882 47.3378H4.12386L2.97229 50.0111H0.957031L5.87178 38.7832ZM8.66846 45.5898L6.73546 41.1275L4.82303 45.5898H8.66846Z" fill="white"/>
<path d="M19.0527 41.6011H20.9857V42.9994C21.6026 42.1152 22.4869 41.416 23.8441 41.416C25.8388 41.416 27.7718 42.9994 27.7718 45.7755V45.8167C27.7718 48.6134 25.8594 50.1762 23.8441 50.1762C22.4663 50.1762 21.5821 49.477 20.9857 48.6956V52.541H19.0527V41.6011ZM25.7977 45.8372V45.7961C25.7977 44.1716 24.7078 43.1022 23.3917 43.1022C22.0756 43.1022 20.9446 44.1921 20.9446 45.7961V45.8372C20.9446 47.4618 22.0962 48.5311 23.3917 48.5311C24.7078 48.5311 25.7977 47.4823 25.7977 45.8372Z" fill="white"/>
<path d="M34.8876 50.0105V48.9824C34.3119 49.661 33.4482 50.1956 32.1732 50.1956C30.5898 50.1956 29.1709 49.2908 29.1709 47.6046V47.5635C29.1709 45.6921 30.6104 44.8079 32.5845 44.8079C33.6127 44.8079 34.2502 44.9518 34.9082 45.1575V44.993C34.9082 43.8208 34.1679 43.1834 32.8313 43.1834C31.8853 43.1834 31.1862 43.389 30.4253 43.718L29.8906 42.1757C30.816 41.7645 31.7208 41.4766 33.0986 41.4766C35.5868 41.4766 36.8001 42.7926 36.8001 45.0341V50.0105H34.8876ZM34.9288 46.4941C34.4352 46.3091 33.7566 46.1651 32.9958 46.1651C31.7825 46.1651 31.0628 46.6586 31.0628 47.4812V47.5223C31.0628 48.3243 31.7825 48.7562 32.6873 48.7562C33.9623 48.7562 34.9082 48.0364 34.9082 46.9877V46.4941H34.9288Z" fill="white"/>
<path d="M39.082 41.6012H41.015V43.4931C41.5497 42.2387 42.5162 41.375 43.9968 41.4367V43.4725H43.8734C42.1872 43.4725 41.015 44.5624 41.015 46.8039V50.0118H39.082V41.6012Z" fill="white"/>
<path d="M46.0742 47.6869V43.2657H45.0049V41.6H46.0742V39.2969H48.0072V41.6H50.2692V43.2657H48.0072V47.399C48.0072 48.1393 48.3979 48.4478 49.0354 48.4478C49.4672 48.4478 49.8579 48.345 50.2281 48.1599V49.7433C49.7551 50.0106 49.1999 50.1751 48.5007 50.1751C47.0613 50.1546 46.0742 49.5377 46.0742 47.6869Z" fill="white"/>
<path d="M56.5205 45.8578V45.8167C56.5205 43.4107 58.4329 41.416 61.0034 41.416C63.5739 41.416 65.4863 43.3696 65.4863 45.7755V45.8167C65.4863 48.2021 63.5739 50.1968 60.9829 50.1968C58.4124 50.2173 56.5205 48.2432 56.5205 45.8578ZM63.5533 45.8578V45.8167C63.5533 44.3361 62.484 43.1022 60.9829 43.1022C59.4406 43.1022 58.4535 44.3155 58.4535 45.7755V45.8167C58.4535 47.2767 59.5228 48.5311 61.024 48.5311C62.5663 48.5311 63.5533 47.3178 63.5533 45.8578Z" fill="white"/>
<path d="M67.8721 43.2664H66.8027V41.6624H67.8721V41.0661C67.8721 40.1202 68.1188 39.421 68.5507 38.9892C69.0031 38.5367 69.62 38.3105 70.4425 38.3105C71.1211 38.3105 71.5735 38.4134 72.0054 38.5367V40.1613C71.6147 40.0379 71.2856 39.9557 70.8744 39.9557C70.1341 39.9557 69.7639 40.3464 69.7639 41.2306V41.683H71.9848V43.2664H69.7845V50.0114H67.8515V43.2664H67.8721Z" fill="white"/>
<path d="M77.5361 48.9208L78.3998 47.6047C79.3046 48.2833 80.2917 48.6329 81.1554 48.6329C81.9779 48.6329 82.4714 48.2833 82.4714 47.7281V47.6869C82.4714 47.0289 81.5872 46.8027 80.6001 46.5148C79.3663 46.1652 77.968 45.6511 77.968 44.0472V44.006C77.968 42.4226 79.2841 41.4355 80.9703 41.4355C82.019 41.4355 83.1706 41.8057 84.0549 42.3815L83.294 43.7593C82.4714 43.2657 81.6283 42.9573 80.9292 42.9573C80.1889 42.9573 79.757 43.3069 79.757 43.8004V43.8415C79.757 44.4379 80.6618 44.7052 81.6489 45.0137C82.8827 45.4044 84.2605 45.9596 84.2605 47.4607V47.5019C84.2605 49.2704 82.8827 50.1546 81.1348 50.1546C79.901 50.1752 78.5849 49.7433 77.5361 48.9208Z" fill="white"/>
<path d="M86.2148 38.4961H88.2918V40.3263H86.2148V38.4961ZM86.2971 41.6012H88.2301V50.0118H86.2971V41.6012Z" fill="white"/>
<path d="M90.7383 41.6001H92.6713V42.9161C93.2059 42.1142 93.9874 41.4355 95.3035 41.4355C97.1953 41.4355 98.3058 42.7105 98.3058 44.6641V50.0107H96.3728V45.2399C96.3728 43.9238 95.7147 43.1835 94.5632 43.1835C93.4527 43.1835 92.6713 43.9649 92.6713 45.2604V50.0107H90.7383V41.6001Z" fill="white"/>
<path d="M100.589 51.5941L101.309 50.1546C102.193 50.7098 103.159 51.0388 104.311 51.0388C106.038 51.0388 106.964 50.1546 106.964 48.4684V47.8103C106.265 48.7151 105.38 49.3526 104.003 49.3526C102.028 49.3526 100.178 47.8926 100.178 45.4249V45.3838C100.178 42.8956 102.049 41.4355 104.003 41.4355C105.422 41.4355 106.306 42.0936 106.943 42.875V41.6206H108.876V48.3039C108.876 49.7228 108.506 50.7715 107.807 51.4707C107.046 52.2316 105.853 52.6017 104.352 52.6017C102.974 52.6017 101.679 52.2521 100.589 51.5941ZM106.984 45.4249V45.3838C106.984 44.006 105.853 43.0601 104.517 43.0601C103.18 43.0601 102.131 43.9855 102.131 45.3632V45.4044C102.131 46.7821 103.201 47.7281 104.517 47.7281C105.853 47.7281 106.984 46.7616 106.984 45.4249Z" fill="white"/>
<path d="M111.405 38.3926H113.338V50.0111H111.405V38.3926Z" fill="white"/>
<path d="M115.374 45.8372V45.7961C115.374 43.3901 117.081 41.416 119.487 41.416C122.16 41.416 123.517 43.5135 123.517 45.9401C123.517 46.1251 123.497 46.2896 123.476 46.4747H117.286C117.492 47.8525 118.459 48.6134 119.713 48.6134C120.659 48.6134 121.317 48.2638 121.996 47.6057L123.127 48.6134C122.325 49.5593 121.235 50.1968 119.692 50.1968C117.266 50.2173 115.374 48.4488 115.374 45.8372ZM121.605 45.2203C121.481 43.9865 120.741 42.9994 119.466 42.9994C118.294 42.9994 117.451 43.9042 117.286 45.2203H121.605Z" fill="white"/>
<path d="M125.471 41.6001H127.404V42.875C127.938 42.1347 128.679 41.4355 129.974 41.4355C131.188 41.4355 132.031 42.0319 132.483 42.9161C133.162 42.0319 134.066 41.4355 135.341 41.4355C137.172 41.4355 138.282 42.6077 138.282 44.6435V50.0107H136.349V45.2399C136.349 43.9032 135.732 43.1835 134.642 43.1835C133.593 43.1835 132.833 43.9238 132.833 45.2604V50.0107H130.9V45.2193C130.9 43.9032 130.262 43.1835 129.193 43.1835C128.123 43.1835 127.383 43.9855 127.383 45.281V50.0107H125.45V41.6001H125.471Z" fill="white"/>
<path d="M140.503 46.9677V41.6211H142.436V46.3919C142.436 47.708 143.094 48.4483 144.246 48.4483C145.356 48.4483 146.137 47.6669 146.137 46.3713V41.6211H148.07V50.0111H146.137V48.6951C145.603 49.497 144.821 50.1756 143.505 50.1756C141.613 50.1962 140.503 48.9213 140.503 46.9677Z" fill="white"/>
<path d="M149.798 48.9208L150.662 47.6047C151.566 48.2833 152.553 48.6329 153.417 48.6329C154.24 48.6329 154.733 48.2833 154.733 47.7281V47.6869C154.733 47.0289 153.849 46.8027 152.862 46.5148C151.628 46.1652 150.23 45.6511 150.23 44.0472V44.006C150.23 42.4226 151.546 41.4355 153.232 41.4355C154.281 41.4355 155.432 41.8057 156.317 42.3815L155.556 43.7593C154.733 43.2657 153.89 42.9573 153.191 42.9573C152.451 42.9573 152.019 43.3069 152.019 43.8004V43.8415C152.019 44.4379 152.924 44.7052 153.911 45.0137C155.144 45.4044 156.522 45.9596 156.522 47.4607V47.5019C156.522 49.2704 155.144 50.1546 153.397 50.1546C152.163 50.1752 150.847 49.7433 149.798 48.9208Z" fill="white"/>
<path d="M158.559 38.3926H160.492V50.0111H158.559V38.3926Z" fill="white"/>
<path d="M163.041 38.4961H165.118V40.3263H163.041V38.4961ZM163.103 41.6012H165.036V50.0118H163.103V41.6012Z" fill="white"/>
<path d="M167.565 41.6001H169.498V42.875C170.033 42.1347 170.773 41.4355 172.069 41.4355C173.282 41.4355 174.125 42.0319 174.578 42.9161C175.256 42.0319 176.161 41.4355 177.436 41.4355C179.266 41.4355 180.377 42.6077 180.377 44.6435V50.0107H178.444V45.2399C178.444 43.9032 177.827 43.1835 176.737 43.1835C175.688 43.1835 174.927 43.9238 174.927 45.2604V50.0107H172.994V45.2193C172.994 43.9032 172.357 43.1835 171.288 43.1835C170.218 43.1835 169.478 43.9855 169.478 45.281V50.0107H167.545V41.6001H167.565Z" fill="white"/>
<path d="M182.228 45.8372V45.7961C182.228 43.3901 183.934 41.416 186.34 41.416C189.014 41.416 190.371 43.5135 190.371 45.9401C190.371 46.1251 190.35 46.2896 190.33 46.4747H184.14C184.346 47.8525 185.312 48.6134 186.567 48.6134C187.512 48.6134 188.17 48.2638 188.849 47.6057L189.98 48.6134C189.178 49.5593 188.088 50.1968 186.546 50.1968C184.119 50.2173 182.228 48.4488 182.228 45.8372ZM188.458 45.2203C188.335 43.9865 187.595 42.9994 186.32 42.9994C185.148 42.9994 184.304 43.9042 184.14 45.2203H188.458Z" fill="white"/>
<path d="M191.11 41.6016H193.187L195.449 47.7913L197.732 41.6016H199.747L196.313 50.0739H194.586L191.11 41.6016Z" fill="white"/>
<path d="M200.446 45.8372V45.7961C200.446 43.3901 202.153 41.416 204.559 41.416C207.232 41.416 208.59 43.5135 208.59 45.9401C208.59 46.1251 208.569 46.2896 208.548 46.4747H202.359C202.564 47.8525 203.531 48.6134 204.785 48.6134C205.731 48.6134 206.389 48.2638 207.068 47.6057L208.199 48.6134C207.397 49.5593 206.307 50.1968 204.765 50.1968C202.338 50.2173 200.446 48.4488 200.446 45.8372ZM206.677 45.2203C206.554 43.9865 205.813 42.9994 204.538 42.9994C203.366 42.9994 202.523 43.9042 202.359 45.2203H206.677Z" fill="white"/>
<path d="M210.544 41.6001H212.477V42.9161C213.012 42.1142 213.793 41.4355 215.109 41.4355C217.001 41.4355 218.111 42.7105 218.111 44.6641V50.0107H216.178V45.2399C216.178 43.9238 215.52 43.1835 214.369 43.1835C213.258 43.1835 212.477 43.9649 212.477 45.2604V50.0107H210.544V41.6001Z" fill="white"/>
<path d="M220.825 47.6869V43.2657H219.756V41.6H220.825V39.2969H222.758V41.6H225.02V43.2657H222.758V47.399C222.758 48.1393 223.149 48.4478 223.786 48.4478C224.218 48.4478 224.609 48.345 224.979 48.1599V49.7433C224.506 50.0106 223.951 50.1751 223.252 50.1751C221.812 50.1546 220.825 49.5377 220.825 47.6869Z" fill="white"/>
<path d="M226.274 48.9208L227.138 47.6047C228.043 48.2833 229.03 48.6329 229.894 48.6329C230.716 48.6329 231.21 48.2833 231.21 47.7281V47.6869C231.21 47.0289 230.325 46.8027 229.338 46.5148C228.105 46.1652 226.706 45.6511 226.706 44.0472V44.006C226.706 42.4226 228.022 41.4355 229.709 41.4355C230.757 41.4355 231.909 41.8057 232.793 42.3815L232.032 43.7593C231.21 43.2657 230.367 42.9573 229.667 42.9573C228.927 42.9573 228.495 43.3069 228.495 43.8004V43.8415C228.495 44.4379 229.4 44.7052 230.387 45.0137C231.621 45.4044 232.999 45.9596 232.999 47.4607V47.5019C232.999 49.2704 231.621 50.1546 229.873 50.1546C228.639 50.1752 227.323 49.7433 226.274 48.9208Z" fill="white"/>
<path d="M234.788 47.832H236.906V50.0118H234.788V47.832Z" fill="white"/>
<path d="M238.428 45.8578V45.8167C238.428 43.4313 240.278 41.416 242.787 41.416C244.371 41.416 245.358 42.0124 246.139 42.8555L244.946 44.151C244.35 43.5341 243.733 43.1022 242.767 43.1022C241.368 43.1022 240.34 44.3155 240.34 45.7755V45.8167C240.34 47.3178 241.368 48.5311 242.849 48.5311C243.754 48.5311 244.432 48.0993 245.029 47.4823L246.201 48.6339C245.378 49.5593 244.391 50.2173 242.767 50.2173C240.278 50.2173 238.428 48.2432 238.428 45.8578Z" fill="white"/>
<path d="M247.271 45.8578V45.8167C247.271 43.4107 249.183 41.416 251.753 41.416C254.324 41.416 256.236 43.3696 256.236 45.7755V45.8167C256.236 48.2021 254.324 50.1968 251.733 50.1968C249.183 50.2173 247.271 48.2432 247.271 45.8578ZM254.324 45.8578V45.8167C254.324 44.3361 253.255 43.1022 251.753 43.1022C250.211 43.1022 249.224 44.3155 249.224 45.7755V45.8167C249.224 47.2767 250.293 48.5311 251.795 48.5311C253.337 48.5311 254.324 47.3178 254.324 45.8578Z" fill="white"/>
<path d="M258.21 41.6001H260.143V42.875C260.678 42.1347 261.418 41.4355 262.713 41.4355C263.927 41.4355 264.77 42.0319 265.222 42.9161C265.901 42.0319 266.806 41.4355 268.081 41.4355C269.911 41.4355 271.021 42.6077 271.021 44.6435V50.0107H269.088V45.2399C269.088 43.9032 268.471 43.1835 267.381 43.1835C266.333 43.1835 265.572 43.9238 265.572 45.2604V50.0107H263.639V45.2193C263.639 43.9032 263.001 43.1835 261.932 43.1835C260.863 43.1835 260.122 43.9855 260.122 45.281V50.0107H258.189V41.6001H258.21Z" fill="white"/>
<path d="M0.484375 32.43C1.69764 30.7849 2.76696 29.2837 3.89797 27.8031C4.02135 27.618 4.37094 27.5152 4.59714 27.5152C8.9978 27.4947 13.3985 27.5152 17.7785 27.5152C18.2104 27.5152 18.6422 27.5152 19.0535 27.4741C19.6704 27.3918 20.0817 27.1039 20.0611 26.4048C20.0406 25.7056 19.7115 25.2532 19.0329 25.1504C18.745 25.1093 18.4366 25.1093 18.1281 25.1093C14.2621 25.1298 10.3961 25.0476 6.53014 25.1709C3.6512 25.2738 1.38918 22.7239 1.30693 20.1122C1.28636 19.1252 1.24524 18.0559 1.59482 17.1511C2.35568 15.1152 4.10361 14.0254 6.15999 14.0048C12.761 13.902 19.3825 13.9637 25.9835 13.9637C26.0863 13.9637 26.1686 13.9842 26.3537 14.0254C25.7779 15.6293 25.2227 17.2128 24.6469 18.7962C24.3795 18.8167 24.1739 18.8167 23.9477 18.8167C19.0946 18.7962 14.2416 18.7756 9.40907 18.7756C8.81272 18.7756 8.17524 18.7962 7.64058 19.0224C7.291 19.1663 6.90029 19.6804 6.87972 20.0506C6.85916 20.359 7.291 20.832 7.64058 20.9965C8.07242 21.2021 8.60709 21.2227 9.10062 21.2227C12.8227 21.1816 16.5447 21.2227 20.2462 21.0376C24.2562 20.832 25.9629 24.225 25.5722 27.3507C25.0993 31.0933 22.4054 32.3477 19.6704 32.3889C13.563 32.4505 7.45551 32.43 1.34806 32.43C1.12185 32.43 0.895651 32.43 0.484375 32.43Z" fill="white"/>
<path d="M48.6653 21.1192C46.938 24.3066 45.3134 27.35 43.6683 30.3524C43.072 31.4628 42.3728 32.5116 41.0156 32.6966C40.3781 32.7789 39.7201 32.6555 38.877 32.6144C39.2265 32.162 39.4116 31.9358 39.5967 31.7096C41.1184 29.8588 41.6119 27.7202 41.3857 25.3759C41.324 24.8413 41.4269 24.2243 41.6325 23.7308C42.8663 20.8313 44.203 18.0141 46.2594 15.567C46.5884 15.1763 46.9174 14.8061 47.2876 14.4771C49.0355 12.8731 51.2769 13.2021 52.3874 15.2996C52.9426 16.3484 53.2922 17.5205 53.6212 18.6721C54.4438 21.4688 55.2046 24.2655 55.9449 27.0827C56.1094 27.6791 56.4796 27.6379 56.9114 27.6379C62.7721 27.6379 68.6122 27.6585 74.4729 27.6585C74.7814 27.6585 75.1104 27.6585 75.6039 27.6585C74.3907 29.2419 73.3008 30.7019 72.1903 32.1414C72.067 32.2854 71.7585 32.347 71.5117 32.347C65.0547 32.3676 58.5977 32.347 52.1406 32.3676C51.5443 32.3676 51.462 32.0592 51.3386 31.6273C50.4955 28.296 49.6524 24.9646 48.7887 21.6333C48.7887 21.5099 48.7476 21.4071 48.6653 21.1192Z" fill="white"/>
<path d="M37.6435 31.524C36.7181 29.7143 35.8338 27.987 34.9496 26.239C34.4561 25.252 33.9831 24.2649 33.469 23.2779C33.2428 22.8255 32.9755 22.3936 32.667 22.0029C32.5025 21.7767 32.2146 21.6533 31.9884 21.4682C31.865 21.715 31.6594 21.9618 31.5977 22.2085C30.8368 25.3548 30.0965 28.5011 29.3768 31.6473C29.2534 32.2026 29.0272 32.4288 28.4309 32.4082C27.2382 32.3465 26.0249 32.3876 24.7705 32.3876C25.2435 31.6473 25.7164 30.9893 26.0866 30.2696C27.341 27.9047 27.4849 25.4371 26.539 22.9283C26.395 22.5581 26.3128 22.1263 26.395 21.7561C26.8269 19.7409 27.1765 17.6845 28.2664 15.916C28.7188 15.1757 29.2945 14.4765 29.9937 13.9624C31.1864 13.0576 32.667 13.2427 33.6746 14.3532C34.4149 15.1963 35.1141 16.1011 35.6693 17.0881C37.006 19.4119 38.3015 21.7561 39.4942 24.1621C40.6046 26.4858 39.7821 29.7143 37.6435 31.524Z" fill="white"/>
<path d="M54.0527 13.9434C61.2089 13.9434 68.324 13.9434 75.5625 13.9434C74.9045 14.8276 74.2875 15.6296 73.6912 16.4521C73.6501 16.5138 73.5678 16.555 73.5472 16.6167C72.6836 18.488 71.1824 18.7759 69.2494 18.7142C64.9516 18.5702 60.6743 18.6525 56.3764 18.6936C55.8007 18.6936 55.5333 18.5291 55.3688 17.9739C55.0192 16.8223 54.5874 15.6913 54.1967 14.5603C54.135 14.3546 54.1144 14.1696 54.0527 13.9434Z" fill="white"/>
<path d="M56.1299 20.873C62.3607 20.873 68.4476 20.873 74.6784 20.873C73.6503 22.292 72.7043 23.6286 71.7173 24.9447C71.6144 25.0886 71.306 25.1092 71.1003 25.1092C66.6997 25.1092 62.3196 25.1092 57.9189 25.1298C57.5488 25.1298 57.3431 25.0681 57.2403 24.6362C56.9113 23.4024 56.5206 22.1891 56.1299 20.873Z" fill="white"/>
<path d="M52.8812 9.50169C52.8812 11.3113 51.4828 12.833 49.7966 12.833C48.0487 12.8536 46.6709 11.3319 46.6709 9.37831C46.6709 7.58926 48.1104 6.06753 49.7966 6.0881C51.524 6.12922 52.9017 7.63038 52.8812 9.50169Z" fill="white"/>
<path d="M33.9007 9.48092C33.9007 11.3111 32.5229 12.8328 30.8367 12.8328C29.1093 12.8534 27.6904 11.3317 27.6904 9.48092C27.6904 7.60961 29.0888 6.08789 30.7956 6.08789C32.5435 6.12902 33.9007 7.58905 33.9007 9.48092Z" fill="white"/>
<path d="M41.6531 13.3873L40.9128 12.8321C40.8716 12.8938 40.8716 12.9555 40.8716 12.976C40.8511 12.8732 40.5837 12.318 37.7871 10.6729C37.7254 10.6317 37.6637 10.5906 37.6226 10.5906C37.3141 10.4055 37.0056 10.241 36.6972 10.0971C35.6896 9.58299 34.6408 9.02776 34.1473 7.77337C33.3864 5.90206 33.9416 4.81218 34.538 4.23639C35.7101 3.10538 37.8693 3.12595 39.535 3.68117C39.6172 3.47553 39.7406 3.2082 39.9051 2.85862C40.0696 2.5296 40.4604 1.70704 40.6454 1.54253C41.4063 0.761108 42.4756 0.370396 43.6683 0.473215C44.861 0.576034 45.663 1.06957 46.0537 1.95381C47.5343 5.28515 41.9821 12.9555 41.6531 13.3873C41.6736 13.3873 41.6736 13.3873 41.6531 13.3873ZM37.3347 4.21583C36.4504 4.21583 35.669 4.44203 35.196 4.89444C34.6202 5.44966 34.5791 6.29278 35.0315 7.40322C35.4017 8.34916 36.2242 8.76043 37.1496 9.25397C37.458 9.41848 37.7871 9.58299 38.1161 9.78863L38.26 9.87088C40.1108 10.9608 40.995 11.6599 41.4063 12.1329C43.0925 9.70637 46.1154 4.44203 45.19 2.32396C44.9433 1.76874 44.4086 1.46028 43.5655 1.37802C42.928 1.31633 42.0232 1.41915 41.3035 2.13888C41.1184 2.40621 39.6172 4.42147 39.5556 4.70936C39.5761 4.60654 40.2547 3.88681 40.0285 3.78399L39.5556 4.70936C38.8358 4.38034 38.0955 4.21583 37.3347 4.21583Z" fill="white"/>
<path d="M90.9854 29.7553L92.795 27.5961C94.4401 29.015 96.0646 29.817 98.2033 29.817C100.054 29.817 101.226 28.9533 101.226 27.6578V27.6166C101.226 26.4034 100.548 25.7453 97.3601 25.005C93.7203 24.1208 91.664 23.0515 91.664 19.9052V19.8641C91.664 16.9235 94.111 14.9082 97.5041 14.9082C99.9923 14.9082 101.966 15.6691 103.714 17.0674L102.11 19.3294C100.568 18.1779 99.0258 17.5609 97.463 17.5609C95.6945 17.5609 94.6868 18.4657 94.6868 19.5968V19.6379C94.6868 20.954 95.4683 21.5503 98.7379 22.3317C102.357 23.216 104.228 24.5115 104.228 27.3493V27.3904C104.228 30.5984 101.72 32.4903 98.121 32.4903C95.5094 32.4903 93.0417 31.5855 90.9854 29.7553Z" fill="white" stroke="white" stroke-miterlimit="10"/>
<path d="M106.984 15.1348H110.192L115.395 23.2163L120.598 15.1348H123.806V32.2439H120.783V19.9878L115.374 28.0488H115.272L109.925 20.029V32.2439H106.964V15.1348H106.984Z" fill="white" stroke="white" stroke-miterlimit="10"/>
<path d="M127.404 15.1348H140.092V17.8286H130.427V22.2704H139.002V24.9643H130.427V29.55H140.216V32.2439H127.425V15.1348H127.404Z" fill="white" stroke="white" stroke-miterlimit="10"/>
<path d="M149.551 15.1348H152.759L157.961 23.2163L163.144 15.1348H166.351V32.2439H163.349V19.9878L157.941 28.0488H157.838L152.491 20.029V32.2439H149.53V15.1348H149.551Z" fill="white" stroke="white" stroke-miterlimit="10"/>
<path d="M177.518 32.2437V30.6603C176.634 31.709 175.297 32.511 173.344 32.511C170.896 32.511 168.758 31.1127 168.758 28.5216V28.4805C168.758 25.6221 170.979 24.2444 173.981 24.2444C175.544 24.2444 176.552 24.4706 177.539 24.779V24.5323C177.539 22.7432 176.408 21.7767 174.372 21.7767C172.932 21.7767 171.863 22.0852 170.691 22.5787L169.889 20.2138C171.308 19.5764 172.706 19.1445 174.804 19.1445C178.608 19.1445 180.479 21.1392 180.479 24.5939V32.2437H177.518ZM177.58 26.8354C176.819 26.5475 175.77 26.3213 174.619 26.3213C172.768 26.3213 171.657 27.0822 171.657 28.316V28.3571C171.657 29.5704 172.747 30.2696 174.146 30.2696C176.099 30.2696 177.559 29.1797 177.559 27.5551V26.8354H177.58Z" fill="white" stroke="white" stroke-miterlimit="10"/>
<path d="M183.667 28.6865V21.9004H182.021V19.3505H183.667V15.793H186.628V19.3299H190.103V21.8799H186.628V28.2135C186.628 29.3651 187.224 29.8175 188.211 29.8175C188.869 29.8175 189.466 29.6735 190.041 29.3857V31.8122C189.301 32.2235 188.479 32.4702 187.389 32.4702C185.209 32.4702 183.667 31.5037 183.667 28.6865Z" fill="white" stroke="white" stroke-miterlimit="10"/>
<path d="M192.304 19.35H195.265V22.2495C196.067 20.3165 197.568 19.0005 199.83 19.1033V22.229H199.666C197.075 22.229 195.265 23.9152 195.265 27.3288V32.2436H192.304V19.35Z" fill="white" stroke="white" stroke-miterlimit="10"/>
<path d="M201.64 14.5586H204.806V17.3758H201.64V14.5586ZM201.763 19.35H204.724V32.2435H201.763V19.35Z" fill="white" stroke="white" stroke-miterlimit="10"/>
<path d="M207.809 19.3494H210.77V21.3029C211.592 20.1514 212.723 19.082 214.697 19.082C216.548 19.082 217.844 19.9868 218.543 21.3441C219.592 19.9663 220.969 19.082 222.923 19.082C225.74 19.082 227.447 20.8711 227.447 24.0173V32.2429H224.486V24.9222C224.486 22.8658 223.54 21.7759 221.874 21.7759C220.27 21.7759 219.119 22.9069 219.119 24.9838V32.2634H216.158V24.9016C216.158 22.9069 215.17 21.7759 213.546 21.7759C211.921 21.7759 210.79 22.9892 210.79 25.0044V32.2634H207.829V19.3494H207.809Z" fill="white" stroke="white" stroke-miterlimit="10"/>
<path d="M229.524 25.8681V25.827C229.524 22.146 232.465 19.082 236.413 19.082C240.362 19.082 243.282 22.0843 243.282 25.7653V25.8064C243.282 29.4668 240.341 32.5308 236.372 32.5308C232.424 32.5308 229.524 29.5285 229.524 25.8681ZM240.32 25.8681V25.827C240.32 23.5649 238.675 21.6731 236.372 21.6731C234.007 21.6731 232.486 23.5238 232.486 25.7858V25.827C232.486 28.0684 234.131 29.9809 236.413 29.9809C238.799 29.9603 240.32 28.089 240.32 25.8681Z" fill="white" stroke="white" stroke-miterlimit="10"/>
<path d="M245.502 19.3494H248.463V21.3441C249.286 20.1308 250.499 19.082 252.494 19.082C255.393 19.082 257.079 21.0356 257.079 24.0379V32.2429H254.118V24.9222C254.118 22.9275 253.111 21.7759 251.363 21.7759C249.656 21.7759 248.463 22.9686 248.463 24.9838V32.2634H245.502V19.3494Z" fill="white" stroke="white" stroke-miterlimit="10"/>
<path d="M259.074 35.452L260.082 33.2517C260.617 33.5396 261.213 33.7452 261.809 33.7452C262.632 33.7452 263.146 33.3751 263.64 32.2646L258.272 19.3711H261.419L265.079 28.9538L268.431 19.3711H271.516L266.395 32.6348C265.367 35.2669 264.215 36.254 262.138 36.254C260.884 36.2334 259.979 35.925 259.074 35.452Z" fill="white" stroke="white" stroke-miterlimit="10"/>
<path d="M83.7676 13.5098V32.6341" stroke="white" stroke-width="2" stroke-miterlimit="10"/>
</g>
<defs>
<clipPath id="clip0_215_2224">
<rect width="273" height="53" fill="white"/>
</clipPath>
</defs>
</svg>
